<?xml version="1.0" encoding="UTF-8"?><svg id="Layer_1" xmlns="http://www.w3.org/2000/svg" viewBox="0 0 1296.26 339.2"><path d="m1089.36,231.8c84.7,1.3,123.6-23.1,152.4-37.1-7.4,0-17-1.7-17-1.7l14-9.6-16.6-.4,11.8-11.4-13.1.4,9.6-7-14,.4s6.1-3.5,11.4-10c-81.8,26.7-110.9,10-130.1,4.4,4.8-22.3,41.1-63.3,79.9-72.1-62-15.7-124.5,27.9-146.3,44.1-12.2-8.7-23.1-26.6-24-35.8-.9-9.2-15.7-24.5-31.9-18.8-12.7,6.1-29.3.4-29.3.4,0,0,9.2,7,21.4,27.5,1.8,24.5,11.4,57.7,43.2,86.9,14,96.1,104.4,125.3,161.2,138-54.7-29.6-74.8-75.9-82.6-98.2Zm-102.2-138.9c-2.2,0-3.9-1.7-3.9-3.7,0-2.1,1.8-3.7,3.9-3.7s3.9,1.7,3.9,3.7c0,2.1-1.8,3.7-3.9,3.7Z" style="fill:#62cbc9;"/><path d="m478.96,172.6l17.7-39.6,16.9,40.6-34.6-1Zm-34.2,40.9h40.9v-5.5c-4.1-.1-8.6-.7-10.6-1.3-3.2-1-4.2-2.8-5.3-5-.4-.8-1.7-3.3-.1-7.5.8-1.9,2.5-6.1,5.2-12.6h41.5l4.5,9.8c1,2.2,1.8,4.1,2.4,5.6.9,2.6,1.4,4.5,1.4,5.7,0,2.9-3.1,3.8-5,4.4-1.9.7-2.7,1.1-8.6,1.3v5h51.5v-5c-4.1.1-7.3-1.2-9.5-4s-3.9-8-8.4-17.6l-37.3-80.8h-6.4l-38.2,84.4c-3.2,7.1-5.9,11.3-7.8,13.6-2.7,3.3-5.7,4.1-10.1,4.4v5.1h-.1Z" style="fill:#0071ce;"/><path d="m570.36,208.8c2.8-.3,7-1,8.3-2.1s2-3.2,2-6.4v-39.3c0-3-.5-5-1.6-6.1s-6.3-1.9-9.6-2.2v-6.1l30.3-.1.1,13.1c2.4-3.5,7.7-8.8,11.4-11.1,5.3-3.2,11.7-3.7,16.3-3.7,6.5,0,11.6,1.6,15.2,4.8,3.6,3.2,5.4,8.8,5.4,16.7v34.6c0,3.1.6,5.2,1.7,6.1,1.2.9,5.3,1.5,8,1.9v3.5h-38v-3.5c2.7-.5,4.6-1.2,5.6-2.1,1-.9,3.7-2.8,4.1-4.9v-34.7c-.4-4.3-.5-4.7-1.2-6.3-1.2-2.9-6.3-5-9.8-5-2.6,0-8.2.7-10.4,2.5s-6.1,5.9-7.8,11.2l.4,32.5c0,3,1.9,3.7,2.9,4.6,1,.9,3.7,1.6,6.5,2.1v3.5h-39.8v-3.5h0Z" style="fill:#0071ce;"/><path d="m697.46,166.1c0-6,.7-10.6,2.2-13.7,1.4-3.2,4.3-4.7,8.6-4.7,3.9,0,6.7,1.5,8.4,4.4,1.6,3,2.4,7.6,2.4,14.1,0,6.1-.8,10.7-2.3,13.9-1.6,3.2-4.4,4.7-8.5,4.7-4.5,0-7.6-2.1-9.2-6.3-1.1-2.8-1.6-6.9-1.6-12.4Zm-9.6,60.3c0-1.7.7-3.4,2-4.9.8-.8,2-1.9,3.7-3.2h27.1c5.6,0,9.5.6,11.6,1.9,2.1,1.3,3.2,3.1,3.2,5.6,0,4.3-3.7,7.2-11.2,8.8-4,.8-9,1.3-15.2,1.3-6.9,0-12.2-.8-15.8-2.5-3.6-1.8-5.4-4.1-5.4-7Zm-14.6.9c0,5.3,4.6,9.1,13.9,11.2,5.6,1.3,12.3,2,20,2,9.5,0,17.3-.9,23.6-2.7,11.8-3.5,17.8-9.9,17.8-19.3,0-7.2-3.9-12.3-11.8-15-4.1-1.5-9.2-2.2-15.3-2.3l-10.7-.2c-1.5,0-3.5-.1-6.1-.2-2.6-.1-4.4-.2-5.2-.4-1.6-.2-2.9-.6-3.8-1.4-.9-.8-1.4-1.9-1.4-3.4,0-1.8.9-3.4,2.7-4.6,1.8-1.3,3.5-2,5.1-2.3,1,0,1.8,0,2.3.1s1.6.1,3.3.1c7.6,0,14.1-.9,19.2-2.7,9.8-3.3,14.7-9.5,14.7-18.5,0-2.9-.6-5.5-1.7-7.9-1.2-2.4-5.1-7.2-5.6-9,0,0,4.4-3.7,5.5-4.9,5,7.4,5.9,7.8,10.2,7.5,12.1-2.8,4.2-15.6.9-16.2-12.6-2.3-22.1,10-22.1,10-1.8-.7-6.5-2.8-9.7-3.4-3.2-.6-6.8-1-10.6-1-10.3,0-18.4,2.1-24.4,6.4-6,4.3-9,9.7-9,16.2,0,5.2,1.7,9.6,5.1,13.3,3.4,3.6,7.9,6.5,13.5,8.4v.9c-3.8,1.2-7.8,3.2-11.8,6s-6,6.2-6,10.2c0,3.4,1.3,6.1,3.8,8.1,1.4,1.1,3.8,2.2,6.9,3.3v.9c-4.9.6-8.3,2-10.2,4.2-2.2,2.5-3.1,4.6-3.1,6.6Z" style="fill:#0071ce;"/><path d="m787.86,173.2c.2-7.9,1.1-13.9,2.8-18,1.6-4.1,4.6-6.1,9-6.1s7.1,1.8,8.6,5.3c1.4,3.6,2.2,9.8,2.3,18.8h-22.7Zm-23.5,7.5c0,12.8,3.6,22.1,10.9,27.9,7.3,5.8,15.1,8.7,23.4,8.7,5.8,0,10.9-.9,15.4-2.8,6.9-3,13-8.3,18.2-15.9l-3.9-2.1c-3.2,3.1-5.9,5.4-8,6.7-3.5,2.2-7.3,3.3-11.3,3.3-8.3,0-14.2-4.1-17.5-12.4-1.8-4.4-2.9-9.6-3.3-15.6h43.1c0-1.4-.2-3.4-.6-6-.8-5.5-2.2-10.1-4.1-13.6-2.6-4.7-6.4-8.3-11.3-10.9-4.9-2.6-10.1-3.9-15.7-3.9-9.7,0-18.1,3.2-25,9.6-6.9,6.5-10.3,15.5-10.3,27Z" style="fill:#0071ce;"/><path d="m850.76,210.5c3.3-.7,5.6-1.6,6.9-2.7,1.4-1.1,2-3.3,2-6.7v-79.2c0-3.4-.6-5.5-1.9-6.6-1.3-1-3.6-1.9-7.1-2.5v-3.8h30.1v92.1c0,3.4,5.1,5.6,6.4,6.6,1.3,1,1.4,1.9,4.8,2.7v3.8h-41.3v-3.7h.1Z" style="fill:#0071ce;"/><path d="m906.16,191.7h4.6c1.6,7.1,4.7,12.1,9.1,15,4.5,2.9,13,4.3,17.7,4.3,4.3,0,7.5-.9,9.5-2.6,2-1.7,5.7-4,5.7-6.8,0-2.6.2-4.9-2-6.8-1.2-1-4.4-2.1-7.1-3.3l-18.9-5.4c-6.5-2.8-11.1-5.9-13.9-9.3-2.9-3.3-4.3-7.2-4.3-11.8,0-5.7,2.3-10.6,6.8-14.8s10.9-6.3,19-6.3c3.5,0,7.3.5,11.3,1.5,4.6,1.2,4.3,3.4,7.1,3.4,1.4,0,2.7-2.1,3.2-2.7.6-.5,1-1.3,1.4-2.2h3.6v21.3h-4c-1.6-5-4.2-9-7.9-12s-7.9-4.5-12.8-4.5c-3.8,0-10.9,1.2-12.8,3-1.9,1.9-3.8,3.6-3.8,5.7,0,1.7-.5,4.7,1.2,6.5,1.6,1.8,8.4,3.8,14.2,4.7l14,3.5c5.7,2.4,9.8,4.8,12.4,7.1,4.4,3.9,5.2,8.6,5.2,14.2s-1.8,10.6-6.3,15.3-13.9,7.1-22.8,7.1c-2.2,0-4.5-.2-6.7-.6-2.3-.4-5-1.1-8.4-2.1l-2.9-.8c-1-.3-1.7-.5-1.9-.6s-.6-.1-.9-.1c-.9,0-1.7.3-2.4,1-.7.6-1.5,1.7-2.3,3.2h-4v-24.1h.1Z" style="fill:#0071ce;"/><path d="m425.76,269.7v-24.8h5.1v20.6h12.6v4.3h-17.7v-.1Z" style="fill:#0071ce;"/><path d="m446.86,269.7v-25.1h5.1v25.1h-5.1Z" style="fill:#0071ce;"/><path d="m462.86,269.7l-8.8-25.1h5.5l6.2,18.6,6.1-18.6h5.4l-8.9,25.1h-5.5Z" style="fill:#0071ce;"/><path d="m479.86,269.7v-25.1h5.1v25.1h-5.1Z" style="fill:#0071ce;"/><path d="m489.76,269.7v-25.1h4.9l10.3,16.8v-16.8h4.7v25.1h-5.1l-10.2-16.4v16.4h-4.6Z" style="fill:#0071ce;"/><path d="m526.66,260.5v-4.3h10.9v10.1c-1.1,1-2.6,1.9-4.6,2.7-2,.8-4,1.2-6.1,1.2-2.6,0-4.9-.5-6.9-1.6-1.9-1.1-3.4-2.7-4.4-4.7-1-2.1-1.5-4.3-1.5-6.7,0-2.6.5-4.9,1.6-7,1.1-2,2.7-3.6,4.8-4.7,1.6-.8,3.6-1.2,6-1.2,3.1,0,5.5.7,7.3,2,1.7,1.3,2.9,3.1,3.4,5.4l-5,.9c-.4-1.2-1-2.2-2-2.9s-2.2-1.1-3.7-1.1c-2.2,0-4,.7-5.3,2.1-1.3,1.4-2,3.5-2,6.3,0,3,.7,5.2,2,6.7s3.1,2.2,5.2,2.2c1.1,0,2.1-.2,3.2-.6,1.1-.4,2-.9,2.8-1.5v-3.2h-5.7v-.1Z" style="fill:#0071ce;"/><path d="m557.06,259.7l3.4-9.3,3.5,9.3h-6.9Zm6.1-15.1h-5.4l-9.7,25.1h5.4l2.1-5.7h10.1l2.2,5.7h5.5l-10.2-25.1Z" style="fill:#0071ce;"/><path d="m574.56,261.5l4.9-.5c.3,1.7.9,2.9,1.8,3.6.9.8,2.1,1.2,3.7,1.2s2.9-.3,3.7-1,1.2-1.5,1.2-2.4c0-.6-.2-1.1-.5-1.5s-.9-.8-1.8-1.1c-.6-.2-1.9-.6-4-1.1-2.7-.7-4.6-1.5-5.7-2.5-1.5-1.4-2.3-3.1-2.3-5,0-1.3.4-2.5,1.1-3.6.7-1.1,1.8-2,3.1-2.5,1.4-.6,3-.9,4.9-.9,3.1,0,5.5.7,7.1,2.1,1.6,1.4,2.4,3.2,2.5,5.6l-5.1.2c-.2-1.3-.7-2.2-1.4-2.8s-1.8-.8-3.2-.8c-1.5,0-2.6.3-3.4.9-.5.4-.8.9-.8,1.6,0,.6.2,1.1.7,1.5.6.5,2.2,1.1,4.6,1.7,2.5.6,4.3,1.2,5.4,1.8,1.2.6,2.1,1.5,2.8,2.6s1,2.4,1,4c0,1.4-.4,2.8-1.2,4.1-.8,1.3-1.9,2.2-3.4,2.8-1.5.6-3.3.9-5.4.9-3.2,0-5.6-.7-7.3-2.2-1.7-1.7-2.7-3.9-3-6.7Z" style="fill:#0071ce;"/><path d="m597.86,261.5l4.9-.5c.3,1.7.9,2.9,1.8,3.6.9.8,2.1,1.2,3.7,1.2s2.9-.3,3.7-1,1.2-1.5,1.2-2.4c0-.6-.2-1.1-.5-1.5s-1-.8-1.8-1.1c-.6-.2-1.9-.6-4-1.1-2.7-.7-4.6-1.5-5.7-2.5-1.5-1.4-2.3-3.1-2.3-5,0-1.3.4-2.5,1.1-3.6.7-1.1,1.8-2,3.1-2.5,1.4-.6,3-.9,4.9-.9,3.1,0,5.5.7,7.1,2.1,1.6,1.4,2.4,3.2,2.5,5.6l-5.1.2c-.2-1.3-.7-2.2-1.4-2.8s-1.8-.8-3.2-.8c-1.5,0-2.6.3-3.4.9-.5.4-.8.9-.8,1.6,0,.6.3,1.1.8,1.5.6.5,2.2,1.1,4.6,1.7,2.5.6,4.3,1.2,5.4,1.8,1.2.6,2.1,1.5,2.8,2.6s1,2.4,1,4c0,1.4-.4,2.8-1.2,4.1-.8,1.3-1.9,2.2-3.4,2.8-1.5.6-3.3.9-5.5.9-3.2,0-5.6-.7-7.3-2.2-1.6-1.7-2.7-3.9-3-6.7Z" style="fill:#0071ce;"/><path d="m622.36,269.7v-25.1h5.1v25.1h-5.1Z" style="fill:#0071ce;"/><path d="m630.96,261.5l4.9-.5c.3,1.7.9,2.9,1.8,3.6.9.8,2.1,1.2,3.7,1.2s2.8-.3,3.7-1c.8-.7,1.2-1.5,1.2-2.4,0-.6-.2-1.1-.5-1.5s-1-.8-1.8-1.1c-.6-.2-1.9-.6-4-1.1-2.7-.7-4.6-1.5-5.7-2.5-1.5-1.4-2.3-3.1-2.3-5,0-1.3.4-2.5,1.1-3.6.7-1.1,1.8-2,3.1-2.5,1.4-.6,3-.9,4.9-.9,3.1,0,5.5.7,7.1,2.1,1.6,1.4,2.4,3.2,2.5,5.6l-5.1.2c-.2-1.3-.7-2.2-1.4-2.8s-1.8-.8-3.2-.8c-1.5,0-2.6.3-3.4.9-.5.4-.8.9-.8,1.6,0,.6.2,1.1.8,1.5.6.5,2.2,1.1,4.6,1.7s4.3,1.2,5.4,1.8c1.2.6,2.1,1.5,2.8,2.6s1,2.4,1,4c0,1.4-.4,2.8-1.2,4.1-.8,1.3-1.9,2.2-3.4,2.8-1.5.6-3.3.9-5.5.9-3.2,0-5.6-.7-7.3-2.2-1.7-1.7-2.7-3.9-3-6.7Z" style="fill:#0071ce;"/><path d="m661.16,269.7v-20.8h-7.4v-4.3h19.8v4.3h-7.4v20.8h-5Z" style="fill:#0071ce;"/><path d="m680.76,259.7l3.4-9.3,3.5,9.3h-6.9Zm6.1-15.1h-5.4l-9.7,25.1h5.4l2.1-5.7h10.1l2.2,5.7h5.5l-10.2-25.1Z" style="fill:#0071ce;"/><path d="m699.56,269.7v-25.1h4.9l10.3,16.8v-16.8h4.7v25.1h-5.1l-10.2-16.4v16.4h-4.6Z" style="fill:#0071ce;"/><path d="m740.86,260.4l4.9,1.5c-.8,2.8-2,4.8-3.8,6.1-1.8,1.3-4,2-6.7,2-3.3,0-6.1-1.1-8.2-3.4-2.1-2.3-3.2-5.4-3.2-9.3,0-4.2,1.1-7.4,3.2-9.7,2.2-2.3,5-3.5,8.5-3.5,3.1,0,5.6.9,7.5,2.7,1.1,1.1,2,2.6,2.6,4.6l-5,1.2c-.3-1.3-.9-2.3-1.9-3.1s-2.1-1.1-3.5-1.1c-1.9,0-3.4.7-4.6,2-1.2,1.3-1.8,3.5-1.8,6.5,0,3.2.6,5.4,1.7,6.8,1.2,1.3,2.6,2,4.5,2,1.4,0,2.5-.4,3.5-1.3,1.2-.8,1.9-2.1,2.3-4Z" style="fill:#0071ce;"/><path d="m750.06,269.7v-25.1h18.6v4.3h-13.5v5.5h12.6v4.3h-12.6v6.8h14v4.3h-19.1v-.1Z" style="fill:#0071ce;"/><path d="m781.76,261.5l4.9-.5c.3,1.7.9,2.9,1.8,3.6.9.8,2.1,1.2,3.7,1.2s2.8-.3,3.7-1c.8-.7,1.2-1.5,1.2-2.4,0-.6-.2-1.1-.5-1.5-.4-.4-1-.8-1.8-1.1-.6-.2-1.9-.6-4-1.1-2.7-.7-4.6-1.5-5.7-2.5-1.5-1.4-2.3-3.1-2.3-5,0-1.3.4-2.5,1.1-3.6.7-1.1,1.8-2,3.1-2.5,1.4-.6,3-.9,4.9-.9,3.1,0,5.5.7,7.1,2.1,1.6,1.4,2.4,3.2,2.5,5.6l-5.1.2c-.2-1.3-.7-2.2-1.4-2.8s-1.8-.8-3.2-.8c-1.5,0-2.6.3-3.4.9-.5.4-.8.9-.8,1.6,0,.6.3,1.1.7,1.5.6.5,2.2,1.1,4.6,1.7s4.3,1.2,5.4,1.8c1.2.6,2.1,1.5,2.8,2.6s1,2.4,1,4c0,1.4-.4,2.8-1.2,4.1-.8,1.3-1.9,2.2-3.4,2.8-1.5.6-3.3.9-5.5.9-3.2,0-5.6-.7-7.3-2.2-1.5-1.7-2.5-3.9-2.9-6.7Z" style="fill:#0071ce;"/><path d="m806.46,269.7v-25.1h18.6v4.3h-13.5v5.5h12.5v4.3h-12.6v6.8h14v4.3h-19v-.1Z" style="fill:#0071ce;"/><path d="m834.86,248.9h3.9c2,0,3.3,0,3.7.1.8.1,1.5.5,1.9,1s.7,1.2.7,2-.2,1.4-.5,1.9-.8.9-1.4,1.1c-.6.2-2.1.3-4.5.3h-3.7v-6.4h-.1Zm0,20.8v-10.5h1c1.2,0,2,.1,2.6.3.5.2,1,.5,1.5,1s1.4,1.7,2.7,3.7l3.6,5.5h6l-3-4.9c-1.2-2-2.1-3.3-2.8-4.1-.7-.8-1.6-1.5-2.7-2.1,2.2-.3,3.8-1.1,4.9-2.3,1.1-1.2,1.6-2.8,1.6-4.7,0-1.5-.4-2.8-1.1-3.9-.7-1.1-1.7-1.9-2.9-2.4s-3.2-.7-5.8-.7h-10.6v25.1h5Z" style="fill:#0071ce;"/><path d="m860.56,269.7l-8.8-25.1h5.5l6.2,18.6,6.1-18.6h5.4l-8.9,25.1h-5.5Z" style="fill:#0071ce;"/><path d="m877.56,269.7v-25.1h5.1v25.1h-5.1Z" style="fill:#0071ce;"/><path d="m903.46,260.4l4.9,1.5c-.8,2.8-2,4.8-3.8,6.1-1.8,1.3-4,2-6.7,2-3.3,0-6.1-1.1-8.2-3.4-2.2-2.3-3.2-5.4-3.2-9.3,0-4.2,1.1-7.4,3.2-9.7,2.2-2.3,5-3.5,8.5-3.5,3.1,0,5.6.9,7.5,2.7,1.1,1.1,2,2.6,2.6,4.6l-5,1.2c-.3-1.3-.9-2.3-1.9-3.1-.9-.8-2.1-1.1-3.5-1.1-1.9,0-3.4.7-4.6,2-1.2,1.3-1.8,3.5-1.8,6.5,0,3.2.6,5.4,1.7,6.8,1.1,1.3,2.6,2,4.5,2,1.4,0,2.5-.4,3.5-1.3,1.2-.8,1.9-2.1,2.3-4Z" style="fill:#0071ce;"/><path d="m912.66,269.7v-25.1h18.6v4.3h-13.5v5.5h12.6v4.3h-12.6v6.8h14v4.3h-19.1v-.1Z" style="fill:#0071ce;"/><path d="m934.66,261.5l4.9-.5c.3,1.7.9,2.9,1.8,3.6.9.8,2.1,1.2,3.7,1.2s2.9-.3,3.7-1,1.2-1.5,1.2-2.4c0-.6-.2-1.1-.5-1.5s-1-.8-1.8-1.1c-.6-.2-1.9-.6-4-1.1-2.7-.7-4.6-1.5-5.7-2.5-1.5-1.4-2.3-3.1-2.3-5,0-1.3.4-2.5,1.1-3.6.7-1.1,1.8-2,3.1-2.5,1.4-.6,3-.9,4.9-.9,3.1,0,5.5.7,7.1,2.1,1.6,1.4,2.4,3.2,2.5,5.6l-5.1.2c-.2-1.3-.7-2.2-1.4-2.8s-1.8-.8-3.2-.8c-1.5,0-2.6.3-3.4.9-.5.4-.8.9-.8,1.6,0,.6.2,1.1.7,1.5.6.5,2.2,1.1,4.6,1.7,2.5.6,4.3,1.2,5.4,1.8,1.2.6,2.1,1.5,2.8,2.6s1,2.4,1,4c0,1.4-.4,2.8-1.2,4.1-.8,1.3-1.9,2.2-3.4,2.8-1.5.6-3.3.9-5.4.9-3.2,0-5.6-.7-7.3-2.2-1.6-1.7-2.6-3.9-3-6.7Z" style="fill:#0071ce;"/><path d="m989.56,207c1.4.8,2.5,1.9,3.3,3.3.8,1.4,1.2,2.9,1.2,4.5s-.4,3-1.2,4.4-1.9,2.5-3.3,3.3c-1.4.8-2.9,1.2-4.4,1.2s-3-.4-4.4-1.2-2.5-1.9-3.3-3.3c-.8-1.4-1.2-2.9-1.2-4.4,0-1.6.4-3.1,1.2-4.5s1.9-2.5,3.3-3.3c1.4-.8,2.9-1.1,4.4-1.1s3,.4,4.4,1.1Zm-9.9-1.9c-1.8,1-3.1,2.3-4.1,4.1s-1.5,3.7-1.5,5.6.5,3.8,1.5,5.6,2.4,3.1,4.1,4.1c1.8,1,3.6,1.5,5.6,1.5s3.8-.5,5.6-1.5,3.1-2.4,4.1-4.1c1-1.8,1.5-3.6,1.5-5.6s-.5-3.8-1.5-5.6-2.4-3.2-4.1-4.1c-1.8-1-3.6-1.4-5.5-1.4-2.1-.1-4,.4-5.7,1.4Zm2.9,15.6v-4.8h.6c.7,0,1.2.2,1.6.5.4.3,1,1.1,1.6,2.4l1,1.9h2.9l-1.3-2.4c-.5-.8-.8-1.3-.9-1.4-.3-.4-.6-.7-.8-.9s-.5-.3-.8-.4c1-.1,1.8-.5,2.3-1.1.6-.6.8-1.3.8-2.2,0-.6-.1-1.2-.4-1.7-.3-.5-.7-.9-1.1-1.1-.4-.2-1-.4-1.8-.5h-6.2v11.7h2.5Zm0-9.9h1c1.3,0,2.2.1,2.5.2.3.1.6.3.8.5.2.3.3.6.3.9s-.1.6-.3.9c-.2.3-.4.5-.8.6-.3.1-1.2.2-2.5.2h-1v-3.3Z" style="fill:#0071ce;"/><path d="m989.56,207c1.4.8,2.5,1.9,3.3,3.3.8,1.4,1.2,2.9,1.2,4.5s-.4,3-1.2,4.4-1.9,2.5-3.3,3.3c-1.4.8-2.9,1.2-4.4,1.2s-3-.4-4.4-1.2-2.5-1.9-3.3-3.3c-.8-1.4-1.2-2.9-1.2-4.4,0-1.6.4-3.1,1.2-4.5s1.9-2.5,3.3-3.3c1.4-.8,2.9-1.1,4.4-1.1s3,.4,4.4,1.1Zm-9.9-1.9c-1.8,1-3.1,2.3-4.1,4.1s-1.5,3.7-1.5,5.6.5,3.8,1.5,5.6,2.4,3.1,4.1,4.1c1.8,1,3.6,1.5,5.6,1.5s3.8-.5,5.6-1.5,3.1-2.4,4.1-4.1c1-1.8,1.5-3.6,1.5-5.6s-.5-3.8-1.5-5.6-2.4-3.2-4.1-4.1c-1.8-1-3.6-1.4-5.5-1.4-2.1-.1-4,.4-5.7,1.4Zm2.9,15.6v-4.8h.6c.7,0,1.2.2,1.6.5.4.3,1,1.1,1.6,2.4l1,1.9h2.9l-1.3-2.4c-.5-.8-.8-1.3-.9-1.4-.3-.4-.6-.7-.8-.9s-.5-.3-.8-.4c1-.1,1.8-.5,2.3-1.1.6-.6.8-1.3.8-2.2,0-.6-.1-1.2-.4-1.7-.3-.5-.7-.9-1.1-1.1-.4-.2-1-.4-1.8-.5h-6.2v11.7h2.5Zm0-9.9h1c1.3,0,2.2.1,2.5.2.3.1.6.3.8.5.2.3.3.6.3.9s-.1.6-.3.9c-.2.3-.4.5-.8.6-.3.1-1.2.2-2.5.2h-1v-3.3Z" style="fill:#0071ce;"/><rect x="756.86" y="221.1" width="198.9" height="7.7" style="fill:#62cbc9;"/><rect x="427.76" y="220.9" width="236.1" height="7.5" style="fill:#62cbc9;"/><rect x="9.66" y="222.1" width="357.2" height="7.5" style="fill:#62cbc9;"/><path d="m2.76,103.3c-4.1,47.2-1.9,86.7,1.4,99.1,3.3,12.4,9.1,17.7,13.5,2.8,6.2-20,18.7-35,28.2-44.5,9.6-9.6,40.1-45.9,44.1-56,7.5-9.6-1.9-29.8-8.9-20.5-4.4,6.3-1.2,17.5-6.5,26.3-4.7,8.4-11.1,16.2-33.7,40.2-7.2,6.6-24.7,27-26.1,31.7-6.4-7.1-4.9-17.5-4.7-24s1.8-45.2,4-53.7c2.2-8.3,4.1-16.6.7-19.9-3.8-3.6-6-.7-7.6,3.4-1.7,4-3.7,6.5-4.4,15.1Z" style="fill:#0071ce;"/><path d="m99.36,138.7c2.9-6.8-1.7-11.3-4.5-7.8s-4.6,4.9-8.3,10.6c-3.6,5.7-5.6,11.3-5.6,15.4.7,6.4-1.1,9.8-2.7,14.7-1.5,4.9-8,30.1-2.2,37.1,5.7,7,8.5,5.5,14.3,1.4,5.7-4.1,22.3-18.1,28.1-29.1,4.2-7,6.6-12,8-12.5,1.4-.4,2.8,3.9,5.2,9.1,2.4,5.2,8.5,18.8,3.6,22-3.4,2.8-5,3.2-6.6,2.5-1.5-.7-1.4-3.2-4.9-1.3-3.5,2-9.9,11.1-4.2,13.2,5.7,2.1,10.6,1.8,17.1-4.1,8-6.2,13.2-15.1,6.4-29.3-4.8-10.1-13-22.4-1.8-33,6-6.3,13-8.3,20.6-8,.6-7.8-1.7-9.5-6-9.1s-15.1.3-25.8,17.4c-5,11.5-18.5,37.7-31.8,46.4-9.9,6.2-17.5,10.1-15.7-.7,2-10.8,3.8-19.7,16.8-54.9Z" style="fill:#0071ce;"/><path d="m105.06,110.8c.9.5,2,.2,3.2.2,1.2-1.6,1.5-16.7.6-24-3.1-4.3-8.9-.5-9.3,2.4-.1,1.6-.5,14.7,5.5,21.4Z" style="fill:#0071ce;"/><path d="m195.16,111.1c.9.5,2,.2,3.2.2,1.2-1.6,1.5-16.7.6-24-3.1-4.3-8.9-.5-9.3,2.3-.2,1.8-.5,14.9,5.5,21.5Z" style="fill:#0071ce;"/><path d="m285.86,110.5c.9.5,2,.2,3.2.2,1.2-1.6,1.5-16.7.6-24-3.1-4.3-8.9-.5-9.2,2.4-.3,1.7-.6,14.8,5.4,21.4Z" style="fill:#0071ce;"/><path d="m208.36,184.1c-1.6-1-14.4,20.2-26.7,26.2-7,3.3-10.7,3.3-14.3-1.8-5.2-7.4.7-32.2,2.2-37.1,1.5-4.9,3.4-8.3,2.7-14.7,0-4.1,2-9.7,5.6-15.4s5.5-7.1,8.3-10.6,7.3,1.1,4.5,7.8c-13,35.2-14.8,44.1-16.7,54.9-1.8,10.8,4.4,10.9,15.7.7,4-4,21.4-24,25.5-31.3,3.8-6.8,3.6-11.5,1.9-11.5-17.4,4.8-19.5-10.5,2.1-10.1,3.2-7,5.6-11.2,10.5-32.2,2.4-9.5,11.4-10.5,10.5-3-1.7,10.5-10.2,31.3-9.7,32.4s30.1-.9,33.9-1.1c1.9,1.3.9,4.2-3.9,5.3-4.9,1.1-30.7,5.3-32.8,7.7-2,2.4-8.6,25.3-9.6,34.2-.9,8.9-3.3,25.9,15.7,12.5,14.4-10.2,18.4-14.5,12.6-3.9-6.8,13.1-34.4,31.8-37.2,6.9-.5-3.9.1-14.1-.8-15.9Z" style="fill:#0071ce;"/><path d="m445.96,184.6c-3.6,2-13.6,8.3-19.7,12.1s-8.2,4.9-8.6,1.2,6.1-35.7,6.5-39.8c.4-4.2,0-3.5,3.3-8.8s2.2-14.9-.1-16.8c-8.9-7.7-22.9,2.2-32,12.2-9.2,10-15,23.5-25.3,41.7-19.3,28.5-35.9,24.5-25.1-14.2,5.4-19.3,7.3-23.3,12.2-34.6,2.7-18.4-15.5-3.2-21.4,3.9-5.9,7.1-16.6,24.2-21.8,32.1-5.2,8-.5-10,1.7-19.6s5.9-14.3,8.4-17c2.6-2.8.5-8.1-1.6-9.2-2.1-1.1-4.3-5.6-9.1,4-4.8,9.6-5.9,24.2-8.4,31.4-4.8,5.4-13.5,18.1-24.9,31-9.7,9.2-17.5,10.1-15.7-.7s3.7-19.7,16.7-54.9c2.9-6.8-1.7-11.3-4.5-7.8s-4.6,4.9-8.3,10.6c-3.6,5.7-5.6,11.3-5.6,15.4.7,6.4-1.1,9.8-2.7,14.7-1.5,4.9-8.1,30.6-2.4,37.7,5,6.2,8.7,4.9,14.5.8,5.7-4.1,25.1-28.3,26.6-28.1,2.4.4,2.3,12.3,2.3,19.6.7,6.2,3.1,10.3,7.7.6,13.1-29,20.2-37.9,26.4-45.8,5.3-6.8,6.2-4.3,5.7-.5-.6,5-1.7,6.6-3.8,15.9-2,10-4,25.4-.5,35.2,8.9,19.2,29.8-7.6,32.9-11.2,3.1-3.6,2.3-1.3,4.4,9.6,2,10.9,8.9,6.5,12.5,3.7,3.5-2.8,20.2-25.3,22.1-28s2.2-2.9,2.4-.3c.2,2.6-3,21.9-4.2,29.7-3.4,3-21.5,17.3-34.3,27.9-14.8,12.7-18.4,17-25.1,31.2s8.8,19.8,16.2,20c22.7-1.8,30-16,36-26.3,6-10.3,13.5-39.4,16.2-48.3,3.8-2.7,29.1-20.8,34.2-25.4,5-4.4-.2-6.9-3.8-4.9Zm-66.8,91.2c-14.8,11.9-23.7.1-19-10.1,5.7-10.4,32.7-40.1,43.6-42.2,2.7-.5-7.8,40.4-24.6,52.3Zm36-119.9c-2.1,3.1-3,5.6-7.5,13.5s-12.3,18.2-19.5,25.7c-7.3,7.5-6.1-7.3-3.6-16.3,2.5-9.1,15.5-24.1,21.9-32.3,1.8-2.3,8-6.9,13.5-4.1,5.5,2.9,1.3,8.8-.2,9.9-1.6,1.1-2.4.5-4.6,3.6Z" style="fill:#0071ce;"/><path d="m1160.16,5.9c-63.6,0-116.5,45.2-128,105l6.5,13.1c.4-4.4,1.1-8.7,1.9-13,11.4-54.5,60.5-95.5,119.5-95.5,67.4,0,122,53.5,122,119.6s-54.6,119.6-122,119.6c-20.8,0-40.4-5.1-57.5-14.1-2.7-1.4-5.3-2.9-7.9-4.5l7.3,14.7c17.5,8.7,37.2,13.5,58.1,13.5,71.9,0,130.2-57.8,130.2-129.2.1-71.4-58.2-129.2-130.1-129.2Z" style="fill:#0071ce;"/><g><path d="m875.36,36.1c1,.5,1.7,1.3,2.2,2.2.5,1,.8,2,.8,3,0,1.1-.3,2-.8,3s-1.3,1.7-2.2,2.2c-1,.5-2,.8-3,.8s-2-.3-3-.8-1.7-1.3-2.2-2.2c-.5-1-.8-2-.8-3,0-1.1.3-2.1.8-3,.5-1,1.3-1.7,2.2-2.2,1-.5,1.9-.8,3-.8s2.1.2,3,.8Zm-6.7-1.4c-1.2.7-2.1,1.6-2.8,2.8s-1,2.5-1,3.8.3,2.6,1,3.8,1.6,2.1,2.8,2.8,2.4,1,3.8,1c1.3,0,2.6-.3,3.8-1s2.1-1.6,2.8-2.8,1-2.4,1-3.8c0-1.3-.3-2.6-1-3.8s-1.6-2.1-2.8-2.8c-1.2-.6-2.4-1-3.7-1s-2.7.4-3.9,1Zm2,10.6v-3.2h.4c.4,0,.8.1,1.1.3s.7.8,1.1,1.6l.7,1.3h2l-.9-1.6c-.3-.6-.5-.9-.6-1-.2-.3-.4-.5-.5-.6s-.3-.2-.6-.3c.7-.1,1.2-.3,1.6-.8.4-.4.6-.9.6-1.5,0-.4-.1-.8-.3-1.1s-.4-.6-.7-.8-.7-.3-1.2-.3h-4.3v7.9h1.6v.1Zm0-6.7h.6c.9,0,1.5,0,1.7.1s.4.2.5.4.2.4.2.6-.1.4-.2.6c-.1.2-.3.3-.5.4-.2.1-.8.1-1.7.1h-.6v-2.2Z" style="fill:#0071ce;"/><path d="m136.46,64.4l-.4,2c-.9.1-1.6.1-2.2.1-.9,0-2-.1-3.3-.2-2.2-.2-3.6-.3-4.2-.3-1,0-2.5.1-4.6.4.7-1.8,1.3-3.8,1.8-5.8.4-1.4.7-3.9,1.1-7.4-2.8,0-7,0-12.8.2-6,9.2-10.5,14.9-13.3,17.3-2.8,2.4-5.5,3.5-8,3.5-1.3,0-2.3-.3-3-.8s-1-1.2-1-2c0-.6.2-1.1.6-1.5s.9-.6,1.4-.6c.3,0,.8.1,1.3.2,1.4.4,2.4.5,2.8.5,1.6,0,3.3-.9,5.2-2.7,3.1-2.9,7.7-9.1,13.8-18.4,6.9-10.6,12.5-18.3,16.8-23.1-5.8.5-9.5,1-10.9,1.5-2,.6-3.5,1.6-4.5,2.8-1,1.2-1.5,2.5-1.5,3.8,0,.4.2,1,.4,1.8.3.9.5,1.5.5,1.9,0,.5-.2,1-.6,1.4s-.9.6-1.4.6c-.8,0-1.4-.3-1.9-.9-.5-.6-.7-1.5-.7-2.7,0-1.7.4-3.3,1.3-4.9s2.2-2.9,3.8-4,3.7-1.9,6.2-2.5c1.3-.3,3.5-.6,6.7-.8,2.8-.2,4.6-.5,5.3-.7,1.1-.3,2.2-.9,3.2-1.8-.7,2.9-1.2,5.4-1.5,7.6l-2.8,20.5-1.6,14.7c1.8.5,3.3.7,4.7.7,1.2-.1,2.2-.2,3.3-.4Zm-11.4-13.8c1.1-9.6,2.3-16.6,3.4-21-3,4-4.8,6.5-5.5,7.6l-9.1,13.5c1.9.1,4.7.1,8.4.1.8-.1,1.8-.1,2.8-.2Z" style="fill:#0071ce;"/><path d="m139.26,44.3l-1.1-1.4c2.3-2.3,4.6-4.1,6.7-5.2,2.1-1.1,3.8-1.7,5-1.7.5,0,.9.1,1.1.3.2.2.4.5.4.9,0,.5-.2,1.4-.6,2.7-.5,2-.9,3.6-1.1,4.7,5.7-5.8,10-8.6,13-8.6.8,0,1.4.2,1.8.7.4.4.6,1.1.6,2.1s-.4,2.7-1.1,5.1c2.7-2.8,5-4.8,7-6s3.5-1.8,4.6-1.8c1,0,1.8.3,2.3.9.5.6.8,1.4.8,2.6,0,.7-.1,1.5-.4,2.5-.2,1-1.1,3.9-2.6,8.9-1.9,6.1-2.8,9.8-2.8,10.9,0,.8.3,1.2,1,1.2.4,0,.9-.1,1.3-.4,1.4-1,2.8-2.2,4.3-3.7l1.2,1.3c-.5.4-1.4,1.2-2.8,2.5-1.9,1.7-3.2,2.8-3.9,3.2-1.4.8-2.5,1.2-3.5,1.2-.7,0-1.3-.3-1.9-1-.5-.7-.8-1.7-.8-2.9,0-1.1.2-2.5.5-4s1.3-4.9,2.9-10.2c1.2-4,1.8-6.4,1.8-7.2s-.4-1.2-1.1-1.2c-.6,0-1.4.3-2.4.9-2,1.2-3.7,2.7-5.1,4.5-.9,1.2-1.8,3.2-2.5,5.8-1.6,5.8-2.7,10.6-3.5,14.2h-5.1l5.3-21.7c.4-1.6.6-2.5.6-2.7,0-.4-.1-.6-.3-.8s-.5-.3-.8-.3c-.6,0-1.6.5-3,1.5-2.3,1.7-4,3.3-5,4.9-1,1.6-1.9,4-2.6,7.2l-2.6,11.8h-5.1l4-16.9c1.2-4.9,1.8-7.6,1.8-8,0-.5-.2-.8-.6-.8-.9,0-2.8,1.3-5.7,4Z" style="fill:#0071ce;"/><path d="m201.86,57.1l1.2,1.5c-5.8,5.5-10.7,8.3-14.9,8.3-1.7,0-3-.6-3.8-1.7-.9-1.1-1.3-3-1.3-5.5,0-5.1,1.5-10.1,4.6-15.1,3.5-5.7,7.6-8.6,12.4-8.6,1.7,0,3,.4,3.8,1.3.9.8,1.3,2,1.3,3.5s-.5,3.1-1.6,4.5c-1.1,1.5-3,3-5.7,4.6-1.4.8-4.3,2.2-8.8,4.2-.2,1.3-.3,2.5-.3,3.7,0,1.7.3,2.9.8,3.6.5.7,1.3,1,2.3,1s2-.3,3.2-.8c1.5-.7,3.8-2.2,6.8-4.5Zm-12.4-5.2c3.8-1.7,6.6-3.5,8.5-5.5,1.3-1.4,1.9-2.7,1.9-4.1,0-1-.3-1.8-.8-2.4-.5-.6-1.2-.9-2.1-.9s-1.7.3-2.5,1c-1.1.9-2,2.2-2.8,4-.9,2.6-1.7,5.2-2.2,7.9Z" style="fill:#0071ce;"/><path d="m214.56,66h-5.3l2.5-9.5c1.2-4.7,2.3-9.1,3.2-13.3.2-1,.3-1.7.3-1.9,0-.6-.3-.9-.8-.9-.4,0-.9.2-1.6.7-.7.5-2.1,1.7-4,3.6l-1.1-1.2c2.3-2.4,4.6-4.3,6.8-5.5,2.3-1.2,4-1.8,5.2-1.8.4,0,.8.1,1,.3.3.2.4.5.4.8s-.2,1.1-.5,2.4l-1.5,6.3c2.4-3.7,5.1-6.9,8.1-9.6,1.4-1.3,2.6-1.9,3.6-1.9.7,0,1.3.2,1.8.7s.7,1,.7,1.6-.2,1.2-.7,1.6c-.5.5-1.6,1-3.4,1.6-1.7.6-3.2,1.3-4.2,2.1-1.1.8-2.3,2.1-3.6,3.8s-2.2,3.2-2.7,4.4c-.5,1.3-1.3,4.2-2.4,8.8l-1.8,6.9Z" style="fill:#0071ce;"/><path d="m230.86,44.4l-1.6-1.2c2.4-2.6,4.5-4.4,6.4-5.5s3.6-1.6,5-1.6c.8,0,1.3.2,1.7.5s.6.8.6,1.3c0,.7-.8,3.6-2.3,8.7-2.5,8.4-3.7,13.4-3.7,15.2,0,.3.1.6.2.8.2.2.3.3.5.3.8,0,2.7-1.5,5.9-4.5l1.4,1.4c-3.2,3.1-5.6,5.1-7.1,5.9-1.5.9-2.7,1.3-3.7,1.3-.8,0-1.5-.3-2-.8s-.7-1.2-.7-2.1c0-3,1.8-10.2,5.3-21.7.2-.5.2-1,.2-1.4,0-.5-.2-.7-.6-.7-.5,0-1,.2-1.6.6-.4.3-1.8,1.5-3.9,3.5Zm14-23.5c.7,0,1.3.2,1.8.7s.7,1.1.7,1.9c0,1-.4,2-1.1,2.7-.7.8-1.5,1.2-2.4,1.2-.7,0-1.3-.2-1.7-.7-.5-.5-.7-1.1-.7-1.9,0-1.1.3-2,1-2.7.7-.8,1.5-1.2,2.4-1.2Z" style="fill:#0071ce;"/><path d="m266.66,58.2l.8,2c-5.7,4.4-10.4,6.6-14.3,6.6-2.1,0-3.6-.7-4.5-2.2s-1.4-3.3-1.4-5.6c0-3.7,1-7.6,3-11.5s4.4-6.9,7.2-9c2.2-1.6,4.7-2.4,7.5-2.4,1.7,0,3.1.3,4,1s1.3,1.5,1.3,2.4c0,.7-.2,1.3-.7,1.8s-1.1.7-2,.7c-.8,0-1.9-.4-3.2-1.1-1.3-.8-2.5-1.2-3.4-1.2-1.2,0-2.3.5-3.5,1.6-1.1,1-2.2,3.1-3.3,6.1-1,3-1.6,6-1.6,9.1,0,2.2.4,4,1.3,5.2.6.9,1.5,1.4,2.7,1.4,3,0,6.3-1.7,10.1-4.9Z" style="fill:#0071ce;"/><path d="m295.96,35.6l2.4-.5-2.7,9c-1.1,3.6-2.1,7.7-3,12.3-.5,2.5-.8,4.2-.8,4.9s.3,1.1.9,1.1c.4,0,1-.2,1.8-.7,1.4-.9,2.8-1.9,4.2-3.2l1.1,1.4c-2.7,2.4-4.4,3.9-5.2,4.4-1.5,1-3,1.8-4.3,2.3-.9.3-1.8.5-2.6.5-.6,0-1.1-.1-1.4-.4s-.5-.7-.5-1.2c0-.4.1-.8.3-1.5l1.4-4.8c-2,2.4-4.5,4.5-7.3,6.2-1.7,1.1-3.3,1.6-4.7,1.6s-2.4-.5-3.2-1.5c-1-1.3-1.5-3-1.5-5.1,0-2.5.7-5.3,2-8.4,1.3-3.1,3.1-5.9,5.4-8.4,2.2-2.5,4.6-4.3,7.1-5.5,1.9-.9,4.4-1.3,7.4-1.3.8,0,1.5,0,2.3.1l.9-1.3Zm-4.4,5.5c-1.3-.3-2.4-.4-3.2-.4-2.1,0-4,.6-5.6,1.8s-3.1,3.3-4.4,6.3c-1.4,3-2,6.1-2,9.1,0,1.6.3,2.8.8,3.5s1.3,1.1,2.1,1.1c1.6,0,3.4-.9,5.2-2.6,1.9-1.8,3.2-4.3,4.1-7.6l3-11.2Z" style="fill:#0071ce;"/><path d="m306.06,33.5l-.6-2.3c2-1.7,3.3-3.1,3.9-4.2s.9-2,.9-3c0-.5-.3-1.3-.9-2.4-.5-.9-.7-1.6-.7-2.4,0-1,.3-1.8.9-2.4s1.3-.9,2.2-.9,1.7.3,2.3,1c.6.7.9,1.6.9,2.8,0,2-.6,4.1-1.9,6.2-1.3,2.3-3.6,4.8-7,7.6Z" style="fill:#0071ce;"/><path d="m326.36,36.2c2.1,0,3.7.4,4.9,1.2,1.1.8,1.7,1.7,1.7,2.8,0,.6-.2,1.2-.7,1.7s-1.1.7-1.7.7c-.5,0-.8-.1-1.2-.3-.3-.2-.8-.7-1.4-1.5-1.2-1.5-2.3-2.3-3.4-2.3-1,0-1.8.4-2.6,1.1-.7.7-1.1,1.7-1.1,2.8,0,1,.2,1.9.7,2.8.5.9,1.7,2.4,3.6,4.4,2.6,2.8,3.9,5.4,3.9,7.9s-1.1,4.7-3.2,6.6-4.9,2.8-8.2,2.8c-2.8,0-4.9-.6-6.3-1.7s-2.1-2.6-2.1-4.2c0-.8.3-1.5.8-2.1.5-.5,1.2-.8,1.9-.8s1.2.2,1.7.7c.5.4.7,1,.7,1.5v1.7c0,.8.3,1.4,1,2,.6.5,1.5.8,2.6.8,1.3,0,2.4-.2,3.4-.7,1-.4,1.7-1.1,2.3-2,.5-.9.8-1.8.8-2.6,0-.9-.3-1.7-.8-2.5-.5-.9-1.6-2.3-3.4-4.2-2.5-2.7-3.7-5.4-3.7-7.9,0-2.3.9-4.3,2.8-6.1,1.7-1.7,4.1-2.6,7-2.6Z" style="fill:#0071ce;"/><path d="m386.06,38.9h-1.9c.1-1.8.2-3.3.2-4.4,0-3.3-.7-5.7-2.1-7s-3.1-2-5.2-2c-2.8,0-5.7,1.1-8.8,3.4-3,2.3-5.6,5.8-7.8,10.7-2.2,4.8-3.3,9.8-3.3,14.9s1,8.7,3,11.4c2,2.6,4.6,3.9,7.6,3.9,4.2,0,8-2.5,11.4-7.4.4-.5.7-.7,1.1-.7.3,0,.6.1.8.3.2.2.3.4.3.7,0,.6-.8,1.9-2.4,3.8s-3.6,3.4-6,4.7c-2.4,1.2-4.7,1.9-7.1,1.9-2.8,0-5.4-.7-7.8-2.2s-4.3-3.5-5.6-6.2c-1.3-2.7-2-5.9-2-9.6,0-5.2,1.4-10.3,4.1-15.5,2.7-5.1,6.1-9.1,10.2-11.9s8-4.2,11.9-4.2c1.4,0,2.8.2,4.1.5.6.1,3,1,7.3,2.5-1.1,3.9-1.8,8.1-2,12.4Z" style="fill:#0071ce;"/><path d="m788.46,39.3h-1.9c.1-1.8.2-3.3.2-4.4,0-3.3-.7-5.7-2.1-7-1.4-1.3-3.1-2-5.2-2-2.8,0-5.7,1.1-8.8,3.4-3,2.3-5.6,5.8-7.8,10.7-2.2,4.8-3.3,9.8-3.3,14.9s1,8.7,3,11.4c2,2.6,4.6,3.9,7.6,3.9,4.2,0,8-2.5,11.4-7.4.4-.5.7-.7,1.1-.7.3,0,.6.1.8.3s.3.4.3.7c0,.6-.8,1.9-2.4,3.8-1.6,1.9-3.6,3.4-6,4.7-2.4,1.2-4.7,1.9-7.1,1.9-2.8,0-5.4-.7-7.8-2.2-2.4-1.5-4.3-3.5-5.6-6.2-1.3-2.7-2-5.9-2-9.6,0-5.2,1.4-10.3,4.1-15.5,2.7-5.1,6.1-9.1,10.2-11.9,4.1-2.8,8-4.2,11.9-4.2,1.4,0,2.8.2,4.1.5.6.1,3,1,7.3,2.5-1.1,3.8-1.9,8-2,12.4Z" style="fill:#0071ce;"/><path d="m414.56,58.4l.9,1.3c-2.2,2.4-4.4,4.3-6.7,5.7-1.6,1-2.8,1.5-3.8,1.5-.8,0-1.5-.3-2-1s-.8-1.7-.8-3c0-.9.2-2.3.6-4.1s1.5-5.7,3.3-11.6c.8-2.9,1.2-4.6,1.2-5.1,0-.8-.4-1.1-1.2-1.1-1,0-2.2.5-3.7,1.5-2.1,1.4-3.9,3.1-5.5,5.2-1,1.4-1.8,3.4-2.5,6l-2.8,12.3h-5.3c1.1-4.1,2-7.5,2.6-10.1l5.2-22.7c.9-4.2,2.2-7.4,3.7-9.7,1.5-2.3,3.6-4.1,6.1-5.4,2.5-1.4,5-2,7.4-2,1,0,1.8.3,2.4.8s.9,1.1.9,1.9c0,.6-.3,1.2-.9,1.7s-1.4.7-2.4.7c-.6,0-1.3-.1-2.2-.2-2-.3-3.4-.4-4.2-.4-1.1,0-2,.4-2.7,1.3s-1.4,2.9-2.1,6.2l-4,17.5c2.8-2.9,5.9-5.4,9.2-7.5,1.9-1.2,3.5-1.8,4.7-1.8.9,0,1.6.3,2.2.8.5.5.8,1.3.8,2.2,0,.8-.1,1.6-.3,2.4-.3,1.4-1,3.9-2.2,7.6-1.5,5.1-2.4,8.2-2.7,9.4-.3,1.2-.4,2.3-.4,3.3,0,.4.1.6.2.8s.3.3.6.3c.6,0,1.6-.7,3.2-2,.9-.8,1.9-1.7,3.2-2.7Z" style="fill:#0071ce;"/><path d="m435.56,36.2c2.3,0,4.2.9,5.8,2.8,1.5,1.8,2.3,4.4,2.3,7.7,0,5.2-1.8,10-5.5,14.1-3.7,4.2-7.6,6.3-11.7,6.3-2.5,0-4.6-.8-6.1-2.5-1.5-1.7-2.3-3.9-2.3-6.8,0-5,1.4-9.5,4.3-13.8,3.5-5.2,7.9-7.8,13.2-7.8Zm-3,2.7c-2,0-4,1.4-5.8,4.3-1.9,2.9-2.8,6.8-2.8,11.9,0,3.1.6,5.5,1.7,7.3.9,1.3,2,1.9,3.4,1.9,2,0,3.8-1.2,5.4-3.7,2.1-3.2,3.1-7.1,3.1-11.9,0-3.5-.5-6.1-1.4-7.6-1-1.5-2.2-2.2-3.6-2.2Z" style="fill:#0071ce;"/><path d="m448.16,44.4l-1.6-1.2c2.4-2.6,4.5-4.4,6.4-5.5s3.6-1.6,5-1.6c.8,0,1.3.2,1.7.5.4.3.6.8.6,1.3,0,.7-.8,3.6-2.3,8.7-2.5,8.4-3.7,13.4-3.7,15.2,0,.3.1.6.2.8.2.2.3.3.5.3.8,0,2.7-1.5,5.9-4.5l1.4,1.4c-3.2,3.1-5.6,5.1-7.1,5.9-1.5.9-2.7,1.3-3.7,1.3-.8,0-1.5-.3-2-.8s-.7-1.2-.7-2.1c0-3,1.8-10.2,5.3-21.7.2-.5.2-1,.2-1.4,0-.5-.2-.7-.6-.7-.5,0-1,.2-1.6.6-.5.3-1.8,1.5-3.9,3.5Zm14-23.5c.7,0,1.3.2,1.8.7s.7,1.1.7,1.9c0,1-.4,2-1.1,2.7-.7.8-1.5,1.2-2.4,1.2-.7,0-1.3-.2-1.7-.7-.5-.5-.7-1.1-.7-1.9,0-1.1.3-2,1-2.7.7-.8,1.5-1.2,2.4-1.2Z" style="fill:#0071ce;"/><path d="m483.96,58.2l.8,2c-5.7,4.4-10.4,6.6-14.3,6.6-2.1,0-3.6-.7-4.5-2.2s-1.4-3.3-1.4-5.6c0-3.7,1-7.6,3-11.5s4.4-6.9,7.2-9c2.2-1.6,4.7-2.4,7.5-2.4,1.7,0,3.1.3,4,1s1.3,1.5,1.3,2.4c0,.7-.2,1.3-.7,1.8s-1.1.7-2,.7c-.8,0-1.9-.4-3.2-1.1-1.3-.8-2.5-1.2-3.4-1.2-1.2,0-2.3.5-3.5,1.6-1.1,1-2.2,3.1-3.3,6.1-1,3-1.6,6-1.6,9.1,0,2.2.4,4,1.3,5.2.6.9,1.5,1.4,2.7,1.4,3,0,6.3-1.7,10.1-4.9Z" style="fill:#0071ce;"/><path d="m507.66,57.1l1.2,1.5c-5.8,5.5-10.7,8.3-14.9,8.3-1.7,0-3-.6-3.8-1.7-.9-1.1-1.3-3-1.3-5.5,0-5.1,1.5-10.1,4.6-15.1,3.5-5.7,7.6-8.6,12.4-8.6,1.7,0,3,.4,3.8,1.3.9.8,1.3,2,1.3,3.5s-.5,3.1-1.6,4.5c-1.1,1.5-3,3-5.7,4.6-1.4.8-4.3,2.2-8.8,4.2-.2,1.3-.3,2.5-.3,3.7,0,1.7.3,2.9.8,3.6.5.7,1.3,1,2.3,1s2-.3,3.2-.8c1.5-.7,3.8-2.2,6.8-4.5Zm-12.4-5.2c3.8-1.7,6.6-3.5,8.5-5.5,1.3-1.4,1.9-2.7,1.9-4.1,0-1-.3-1.8-.8-2.4-.5-.6-1.2-.9-2.1-.9s-1.7.3-2.5,1c-1.1.9-2,2.2-2.8,4-1,2.6-1.7,5.2-2.2,7.9Z" style="fill:#0071ce;"/><path d="m528.46,44.4l-1.6-1.2c2.4-2.6,4.5-4.4,6.4-5.5s3.6-1.6,5-1.6c.8,0,1.3.2,1.7.5s.6.8.6,1.3c0,.7-.8,3.6-2.3,8.7-2.5,8.4-3.7,13.4-3.7,15.2,0,.3.1.6.3.8s.3.3.5.3c.8,0,2.7-1.5,5.9-4.5l1.4,1.4c-3.2,3.1-5.6,5.1-7.1,5.9-1.5.9-2.7,1.3-3.7,1.3-.8,0-1.5-.3-2-.8s-.7-1.2-.7-2.1c0-3,1.8-10.2,5.3-21.7.2-.5.2-1,.2-1.4,0-.5-.2-.7-.6-.7-.5,0-1,.2-1.6.6-.6.3-1.9,1.5-4,3.5Zm13.9-23.5c.7,0,1.3.2,1.8.7s.7,1.1.7,1.9c0,1-.4,2-1.1,2.7-.7.8-1.5,1.2-2.4,1.2-.7,0-1.3-.2-1.7-.7-.5-.5-.7-1.1-.7-1.9,0-1.1.3-2,1-2.7.7-.8,1.5-1.2,2.4-1.2Z" style="fill:#0071ce;"/><path d="m545.76,44.5l-1.2-1.2c3-2.9,5.5-4.8,7.3-5.8s3.4-1.4,4.6-1.4c.5,0,.9.1,1.2.3s.4.5.4.7-.1.6-.2,1.1l-1.6,7.1c2.4-2.7,5.4-5.2,9-7.5,1.9-1.2,3.5-1.8,4.8-1.8.9,0,1.6.3,2.2.9.5.6.8,1.4.8,2.6,0,.7-.1,1.6-.3,2.5-.4,1.5-1.3,4.9-2.9,10-1.5,4.8-2.2,8-2.2,9.6,0,.5.1.8.2,1.1.1.2.3.4.6.4.7,0,1.7-.7,3.2-2,1-1,2.1-1.8,3.1-2.6l.8,1.3c-2.2,2.4-4.4,4.3-6.7,5.8-1.5.9-2.7,1.4-3.6,1.4s-1.6-.3-2.1-1c-.5-.6-.7-1.7-.7-3.1,0-2.1,1.3-7.3,3.9-15.7.8-3,1.2-4.7,1.2-5.2,0-.7-.4-1.1-1.3-1.1-1,0-2.2.5-3.7,1.5-2.2,1.5-4.1,3.2-5.6,5.2-1,1.3-1.7,3.3-2.4,6.1l-3,12.3h-5.3c1-3.6,1.9-7,2.6-10.2l3.2-13.5c.1-.5.2-.9.2-1.2,0-.6-.2-1-.7-1-.4,0-.9.3-1.6.8-1.6,1-3,2.2-4.2,3.6Z" style="fill:#0071ce;"/><path d="m636.76,64.4l-.4,2c-1.2.1-2.1.2-2.8.2-1,0-2.4-.1-4-.2-1.8-.2-3.3-.2-4.6-.2-1,0-2.1.2-3.2.5.9-2.7,2-6.5,3.3-11.3l2.8-10.6-9.6.4c-1.7.1-3.4.2-5.2.4-1.6,6.3-3.3,11-5,14s-3.7,5.3-5.8,6.7c-2.2,1.4-4.3,2.1-6.3,2.1s-3.6-.5-5-1.4c-1-.7-1.5-1.5-1.5-2.5,0-.6.2-1.1.6-1.5.4-.4.9-.6,1.5-.6.9,0,1.9.7,2.8,1.9.6.8,1.1,1.3,1.4,1.5.4.2.8.3,1.2.3,1.8,0,3.6-1.5,5.2-4.5,1.6-3,4-10.3,7.1-22.1l3.5-13c-4.7,0-8.3.8-10.6,2.3-2.4,1.6-3.6,3.3-3.6,5.3,0,.7.3,1.5,1,2.5.6.9.8,1.7.8,2.3,0,.7-.2,1.2-.7,1.7-.4.4-1,.7-1.7.7-.8,0-1.5-.4-2.1-1.2s-.9-1.9-.9-3.5c0-2.7,1-5.2,3-7.3,2-2.1,4.9-3.6,8.7-4.5,2.2-.5,6.5-.7,13-.7-1.7,3.5-3.7,9.6-5.9,18.3,6.3,0,11.2-.2,14.8-.7,2-6.9,3.8-11.6,5.4-14.3,1.6-2.7,3.3-4.7,5.3-5.9,1.9-1.2,4.1-1.8,6.5-1.8,2.1,0,3.7.4,4.8,1.2,1.1.8,1.7,1.7,1.7,2.7,0,.6-.2,1.1-.6,1.5-.4.4-.9.6-1.6.6-.8,0-1.8-.6-2.8-1.8-1.1-1.2-2-1.8-2.8-1.8-1.8,0-3.5,1.7-5.2,5-3.1,5.9-6.6,18.2-10.7,37.1.4,0,1,.1,1.7.3,1.3.2,2.4.4,3.2.4,1-.2,2.1-.3,3.3-.5Z" style="fill:#0071ce;"/><path d="m656.96,36.2c2.3,0,4.2.9,5.8,2.8,1.5,1.8,2.3,4.4,2.3,7.7,0,5.2-1.8,10-5.5,14.1-3.7,4.2-7.6,6.3-11.7,6.3-2.5,0-4.6-.8-6.1-2.5-1.6-1.7-2.3-3.9-2.3-6.8,0-5,1.4-9.5,4.3-13.8,3.4-5.2,7.8-7.8,13.2-7.8Zm-3.1,2.7c-2,0-4,1.4-5.8,4.3-1.9,2.9-2.8,6.8-2.8,11.9,0,3.1.6,5.5,1.7,7.3.9,1.3,2,1.9,3.4,1.9,2,0,3.8-1.2,5.4-3.7,2.1-3.2,3.1-7.1,3.1-11.9,0-3.5-.5-6.1-1.4-7.6s-2.1-2.2-3.6-2.2Z" style="fill:#0071ce;"/><path d="m669.36,44.3l-1.1-1.4c2.3-2.3,4.6-4.1,6.7-5.2,2.1-1.1,3.8-1.7,5-1.7.5,0,.9.1,1.1.3.2.2.4.5.4.9,0,.5-.2,1.4-.6,2.7-.6,2-.9,3.6-1.1,4.7,5.7-5.8,10-8.6,13-8.6.8,0,1.4.2,1.8.7.4.4.6,1.1.6,2.1s-.4,2.7-1.1,5.1c2.7-2.8,5-4.8,7-6s3.5-1.8,4.6-1.8c1,0,1.8.3,2.3.9.5.6.8,1.4.8,2.6,0,.7-.1,1.5-.4,2.5-.2,1-1.1,3.9-2.6,8.9-1.9,6.1-2.8,9.8-2.8,10.9,0,.8.3,1.2,1,1.2.4,0,.9-.1,1.3-.4,1.4-1,2.8-2.2,4.3-3.7l1.2,1.3c-.5.4-1.4,1.2-2.8,2.5-1.9,1.7-3.2,2.8-3.9,3.2-1.4.8-2.5,1.2-3.5,1.2-.7,0-1.3-.3-1.9-1-.5-.7-.8-1.7-.8-2.9,0-1.1.2-2.5.5-4s1.3-4.9,2.9-10.2c1.2-4,1.8-6.4,1.8-7.2s-.4-1.2-1.1-1.2c-.6,0-1.4.3-2.4.9-2,1.2-3.7,2.7-5.1,4.5-.9,1.2-1.8,3.2-2.5,5.8-1.6,5.8-2.8,10.6-3.5,14.2h-5.1l5.3-21.7c.4-1.6.6-2.5.6-2.7,0-.4-.1-.6-.3-.8s-.5-.3-.8-.3c-.6,0-1.6.5-3,1.5-2.3,1.7-4,3.3-5,4.9-1,1.6-1.9,4-2.6,7.2l-2.6,11.8h-5.1l4-16.9c1.2-4.9,1.8-7.6,1.8-8,0-.5-.2-.8-.6-.8-1,0-2.9,1.3-5.7,4Z" style="fill:#0071ce;"/><path d="m731.86,57.1l1.2,1.5c-5.8,5.5-10.7,8.3-14.9,8.3-1.7,0-3-.6-3.8-1.7-.9-1.1-1.3-3-1.3-5.5,0-5.1,1.5-10.1,4.6-15.1,3.5-5.7,7.6-8.6,12.4-8.6,1.7,0,3,.4,3.9,1.3.9.8,1.3,2,1.3,3.5s-.5,3.1-1.6,4.5c-1.1,1.5-3,3-5.7,4.6-1.4.8-4.3,2.2-8.8,4.2-.2,1.3-.3,2.5-.3,3.7,0,1.7.3,2.9.8,3.6.5.7,1.3,1,2.3,1s2-.3,3.2-.8c1.5-.7,3.7-2.2,6.7-4.5Zm-12.3-5.2c3.8-1.7,6.6-3.5,8.5-5.5,1.3-1.4,1.9-2.7,1.9-4.1,0-1-.3-1.8-.8-2.4-.5-.6-1.2-.9-2.1-.9s-1.7.3-2.5,1c-1.1.9-2,2.2-2.8,4-1,2.6-1.8,5.2-2.2,7.9Z" style="fill:#0071ce;"/><path d="m811.46,35.6l2.4-.5-2.7,9c-1.1,3.6-2.1,7.7-3,12.3-.5,2.5-.8,4.2-.8,4.9s.3,1.1.9,1.1c.4,0,1-.2,1.8-.7,1.4-.9,2.8-1.9,4.2-3.2l1.1,1.4c-2.7,2.4-4.4,3.9-5.2,4.4-1.5,1-3,1.8-4.3,2.3-.9.3-1.8.5-2.6.5-.6,0-1.1-.1-1.4-.4-.3-.3-.5-.7-.5-1.2,0-.4.1-.8.3-1.5l1.4-4.8c-2,2.4-4.4,4.5-7.3,6.2-1.7,1.1-3.3,1.6-4.7,1.6s-2.4-.5-3.2-1.5c-1-1.3-1.5-3-1.5-5.1,0-2.5.7-5.3,2-8.4,1.3-3.1,3.1-5.9,5.4-8.4,2.2-2.5,4.6-4.3,7.1-5.5,1.9-.9,4.4-1.3,7.4-1.3.8,0,1.5,0,2.3.1l.9-1.3Zm-4.4,5.5c-1.3-.3-2.4-.4-3.2-.4-2.1,0-4,.6-5.6,1.8s-3.1,3.3-4.4,6.3c-1.4,3-2,6.1-2,9.1,0,1.6.3,2.8.8,3.5s1.3,1.1,2.1,1.1c1.6,0,3.4-.9,5.2-2.6,1.9-1.8,3.2-4.3,4.1-7.6l3-11.2Z" style="fill:#0071ce;"/><path d="m824.36,66h-5.3l2.5-9.5c1.2-4.7,2.3-9.1,3.2-13.3.2-1,.3-1.7.3-1.9,0-.6-.3-.9-.8-.9-.4,0-.9.2-1.6.7-.7.5-2.1,1.7-4,3.6l-1.1-1.2c2.3-2.4,4.6-4.3,6.8-5.5,2.3-1.2,4-1.8,5.2-1.8.4,0,.8.1,1,.3.3.2.4.5.4.8s-.2,1.1-.5,2.4l-1.5,6.3c2.4-3.7,5.1-6.9,8.1-9.6,1.4-1.3,2.6-1.9,3.6-1.9.7,0,1.3.2,1.8.7s.7,1,.7,1.6-.2,1.2-.7,1.6c-.5.5-1.6,1-3.4,1.6-1.7.6-3.2,1.3-4.2,2.1-1.1.8-2.3,2.1-3.6,3.8s-2.2,3.2-2.7,4.4c-.5,1.3-1.3,4.2-2.4,8.8l-1.8,6.9Z" style="fill:#0071ce;"/><path d="m858.06,57.1l1.2,1.5c-5.8,5.5-10.7,8.3-14.9,8.3-1.7,0-3-.6-3.8-1.7-.9-1.1-1.3-3-1.3-5.5,0-5.1,1.5-10.1,4.6-15.1,3.4-5.7,7.6-8.6,12.4-8.6,1.7,0,3,.4,3.8,1.3.9.8,1.3,2,1.3,3.5s-.5,3.1-1.6,4.5c-1.1,1.5-3,3-5.7,4.6-1.4.8-4.3,2.2-8.8,4.2-.2,1.3-.3,2.5-.3,3.7,0,1.7.3,2.9.8,3.6.5.7,1.3,1,2.3,1s2-.3,3.2-.8c1.6-.7,3.8-2.2,6.8-4.5Zm-12.3-5.2c3.8-1.7,6.6-3.5,8.5-5.5,1.3-1.4,1.9-2.7,1.9-4.1,0-1-.3-1.8-.8-2.4-.5-.6-1.2-.9-2.1-.9s-1.7.3-2.5,1c-1.1.9-2,2.2-2.8,4-1,2.6-1.8,5.2-2.2,7.9Z" style="fill:#0071ce;"/></g></svg>